<mxfile host="app.diagrams.net" agent="Mozilla/5.0 (Windows NT 10.0; Win64; x64) AppleWebKit/537.36 (KHTML, like Gecko) Chrome/134.0.0.0 Safari/537.36 Edg/134.0.0.0" version="26.1.2">
  <diagram name="第 1 页" id="Q_6yIfTdnpBGaSWVfiB5">
    <mxGraphModel dx="876" dy="751" grid="1" gridSize="10" guides="1" tooltips="1" connect="1" arrows="1" fold="1" page="1" pageScale="1" pageWidth="827" pageHeight="1169" math="0" shadow="0">
      <root>
        <mxCell id="0" />
        <mxCell id="1" parent="0" />
        <mxCell id="i7Xs4weXve3k-kehigxS-8" value="&lt;p style=&quot;language:zh-CN;margin-top:0pt;margin-bottom:0pt;margin-left:0in;&lt;br/&gt;text-align:center;direction:ltr;unicode-bidi:embed;mso-line-break-override:&lt;br/&gt;none;word-break:normal;punctuation-wrap:hanging&quot;&gt;&lt;b&gt;护肤类&lt;/b&gt;&lt;/p&gt;" style="text;whiteSpace=wrap;html=1;align=center;fontSize=11;fontColor=#007FFF;" vertex="1" parent="1">
          <mxGeometry x="226.79999999999998" y="851.24" width="86.41" height="20" as="geometry" />
        </mxCell>
        <mxCell id="i7Xs4weXve3k-kehigxS-9" value="&lt;span style=&quot;font-family: &amp;quot;Times New Roman&amp;quot;; color: black; font-weight: bold;&quot;&gt;洁面乳&lt;/span&gt;" style="text;whiteSpace=wrap;html=1;fontSize=9;align=center;" vertex="1" parent="1">
          <mxGeometry x="241.69999999999996" y="811.24" width="76.22" height="18.76" as="geometry" />
        </mxCell>
        <mxCell id="i7Xs4weXve3k-kehigxS-10" value="&lt;span style=&quot;font-family: &amp;quot;Times New Roman&amp;quot;; color: black; font-weight: bold;&quot;&gt;机械臂&lt;/span&gt;" style="text;whiteSpace=wrap;html=1;fontSize=9;align=center;" vertex="1" parent="1">
          <mxGeometry x="257.21" y="1051.24" width="73" height="17.52" as="geometry" />
        </mxCell>
        <mxCell id="i7Xs4weXve3k-kehigxS-11" value="&lt;span style=&quot;font-family: &amp;quot;Times New Roman&amp;quot;; color: black; font-weight: bold;&quot;&gt;爽肤水&lt;/span&gt;" style="text;whiteSpace=wrap;html=1;fontSize=9;align=center;" vertex="1" parent="1">
          <mxGeometry x="165.47999999999993" y="812.48" width="76.22" height="18.76" as="geometry" />
        </mxCell>
        <mxCell id="i7Xs4weXve3k-kehigxS-12" value="" style="shape=curlyBracket;whiteSpace=wrap;html=1;rounded=1;labelPosition=left;verticalLabelPosition=middle;align=right;verticalAlign=middle;direction=north;" vertex="1" parent="1">
          <mxGeometry x="200" y="831.24" width="140" height="20" as="geometry" />
        </mxCell>
        <mxCell id="i7Xs4weXve3k-kehigxS-15" value="&lt;span style=&quot;font-family: &amp;quot;Times New Roman&amp;quot;; color: black; font-weight: bold;&quot;&gt;眼影&lt;/span&gt;" style="text;whiteSpace=wrap;html=1;fontSize=9;align=center;" vertex="1" parent="1">
          <mxGeometry x="171.60999999999993" y="940" width="76.22" height="18.76" as="geometry" />
        </mxCell>
        <mxCell id="i7Xs4weXve3k-kehigxS-20" value="&lt;span style=&quot;font-family: &amp;quot;Times New Roman&amp;quot;; color: black; font-weight: bold;&quot;&gt;口红&lt;/span&gt;" style="text;whiteSpace=wrap;html=1;fontSize=9;align=center;" vertex="1" parent="1">
          <mxGeometry x="251.89" y="940" width="58.11" height="18.76" as="geometry" />
        </mxCell>
        <mxCell id="i7Xs4weXve3k-kehigxS-22" value="" style="shape=curlyBracket;whiteSpace=wrap;html=1;rounded=1;labelPosition=left;verticalLabelPosition=middle;align=right;verticalAlign=middle;direction=north;" vertex="1" parent="1">
          <mxGeometry x="208.28" y="958.76" width="131.72" height="20" as="geometry" />
        </mxCell>
        <mxCell id="i7Xs4weXve3k-kehigxS-24" value="&lt;p style=&quot;language:zh-CN;margin-top:0pt;margin-bottom:0pt;margin-left:0in;&lt;br/&gt;text-align:center;direction:ltr;unicode-bidi:embed;mso-line-break-override:&lt;br/&gt;none;word-break:normal;punctuation-wrap:hanging&quot;&gt;&lt;b&gt;彩妆类&lt;/b&gt;&lt;/p&gt;" style="text;whiteSpace=wrap;html=1;align=center;fontSize=11;fontColor=#007FFF;" vertex="1" parent="1">
          <mxGeometry x="208.27999999999997" y="978.76" width="86.41" height="20" as="geometry" />
        </mxCell>
        <mxCell id="i7Xs4weXve3k-kehigxS-26" value="&lt;span style=&quot;font-family: &amp;quot;Times New Roman&amp;quot;; color: black; font-weight: bold;&quot;&gt;遥控飞机&lt;/span&gt;" style="text;whiteSpace=wrap;html=1;fontSize=9;align=center;" vertex="1" parent="1">
          <mxGeometry x="171.60999999999993" y="1051.24" width="76.22" height="18.76" as="geometry" />
        </mxCell>
        <mxCell id="i7Xs4weXve3k-kehigxS-27" value="" style="shape=image;verticalLabelPosition=bottom;labelBackgroundColor=default;verticalAlign=top;aspect=fixed;imageAspect=0;editableCssRules=.*;image=data:image/svg+xml,PHN2ZyB4bWxuczp4bGluaz0iaHR0cDovL3d3dy53My5vcmcvMTk5OS94bGluayIgeG1sbnM9Imh0dHA6Ly93d3cudzMub3JnLzIwMDAvc3ZnIiBoZWlnaHQ9IjIwMCIgd2lkdGg9IjgxLjI1MDAwNTk2MDQ2NDQ4IiB2ZXJzaW9uPSIxLjEiIHZpZXdCb3g9IjMwMy45OTk5Njk0ODI0MjE5IDAgNDE2LjAwMDAzMDUxNzU3ODEgMTAyNCIgY2xhc3M9Imljb24iPjxwYXRoIGZpbGw9IiNGRkFDQ0MiIGQ9Ik0zNTIgOTc2VjYyNS4wMTZzNDguNjI0IDMxLjUxMiAxMTIgMGM2Ni42LTMzLjEyIDU1LjA5Ni02OS4zMiAxMTItMTE5LjYxNmExMjMuMiAxMjMuMiAwIDAgMSA5Ni0zMS44OTZWOTc2SDM1MnogbTU2LTg0OGgyMDB2NjRINDA4di02NHoiLz48cGF0aCBmaWxsPSIjRkY1ODk2IiBkPSJNNjAwIDU1MS44OTZjLTU2LjkwNCA1MC43MTItMzcuNiA3My40NC0xMzYgMTIyLTYzLjU2OCAzMS4zNjgtMTEyIDAtMTEyIDB2LTQ4LjM5MnM0OC42MjQgMzEuNzc2IDExMiAwYzY2LjYtMzMuMzg0IDU1LjA5Ni02OS44ODggMTEyLTEyMC41OTJhMTIyLjQ1NiAxMjIuNDU2IDAgMCAxIDk2LTMyLjE2djQ4LjM5MnMtMjYtMTAuMjQtNzIgMzAuNzUyeiIvPjxwYXRoIGZpbGw9IiM2NjNDODgiIGQ9Ik02NTYgMTAyNEgzNjhhNjQgNjQgMCAwIDEtNjQtNjRWMzIwYTE0NCAxNDQgMCAwIDEgODAtMTI5VjgwQTgwIDgwIDAgMCAxIDQ2NCAwaDk2YTgwIDgwIDAgMCAxIDgwIDgwdjExMUExNDQgMTQ0IDAgMCAxIDcyMCAzMjB2NjQwYTY0IDY0IDAgMCAxLTY0IDY0ek01OTIgMTQ0SDQzMnYzMi45MDRBMTQ1LjM2IDE0NS4zNiAwIDAgMSA0NDggMTc2aDEyOGExNDUuMzUyIDE0NS4zNTIgMCAwIDEgMTYgMC45MDRWMTQ0ek01NTIgNDhINDcyYTQwIDQwIDAgMCAwLTQwIDQwdjhoMTYwdi04YTQwIDQwIDAgMCAwLTQwLTQweiBtMTIwIDI3MmE5NiA5NiAwIDAgMC05Ni05Nkg0NDhhOTYgOTYgMCAwIDAtOTYgOTZ2NjI0YTMyIDMyIDAgMCAwIDMyIDMyaDI1NmEzMiAzMiAwIDAgMCAzMi0zMlYzMjB6Ii8+PC9zdmc+;" vertex="1" parent="1">
          <mxGeometry x="193.46" y="761.24" width="20.25" height="50" as="geometry" />
        </mxCell>
        <mxCell id="i7Xs4weXve3k-kehigxS-28" value="" style="shape=image;verticalLabelPosition=bottom;labelBackgroundColor=default;verticalAlign=top;aspect=fixed;imageAspect=0;editableCssRules=.*;image=data:image/svg+xml,PHN2ZyB4bWxuczp4bGluaz0iaHR0cDovL3d3dy53My5vcmcvMTk5OS94bGluayIgeG1sbnM9Imh0dHA6Ly93d3cudzMub3JnLzIwMDAvc3ZnIiBoZWlnaHQ9IjIwMCIgd2lkdGg9IjIwMCIgdmVyc2lvbj0iMS4xIiB2aWV3Qm94PSIwIDAgMTAyNCAxMDI0IiBjbGFzcz0iaWNvbiI+PHBhdGggZmlsbD0iI0ZGRkZGRiIgZD0iTTAgMGgxMDI0djEwMjRIMHoiLz48cGF0aCBmaWxsPSIjRDRGMkZGIiBkPSJNNjI4LjQgNjIyLjlzMjIuNi01OS43IDU0IDMgNDUuNSAyNjEuOSA0NS41IDI2MS45SDU3MC4xYzAtMC4xIDQwLjMtMjUyLjcgNTguMy0yNjQuOXoiLz48cGF0aCBvcGFjaXR5PSIuMyIgZmlsbD0iIzU0QjdGRSIgZD0iTTYzMy4xIDYyMi45bDExLjMtMi43LTU1IDI2OC41LTE5LjMtMC45YzAtMC4xIDQzLjYtMjUyLjcgNjMtMjY0Ljl6Ii8+PHBhdGggZmlsbD0iI0Q0RjJGRiIgZD0iTTY1OC44OSA1NzUuMjA3bDI0LjAzMy00Ni4yMjMgMTUuMDgzIDcuODQyLTI0LjAzNCA0Ni4yMjN6Ii8+PHBhdGggZmlsbD0iI0Q0RjJGRiIgZD0iTTY5NC43IDYxNy44aC01My45Yy01LjggMC0xMC41LTQuNy0xMC41LTEwLjV2LTI2LjFjMC01LjggNC43LTEwLjUgMTAuNS0xMC41aDUzLjljNS44IDAgMTAuNSA0LjcgMTAuNSAxMC41djI2LjFjMCA1LjgtNC43IDEwLjUtMTAuNSAxMC41eiIvPjxwYXRoIGZpbGw9IiMzMTU0NzIiIGQ9Ik03NTQuMSA4OTIuOWgtMTg5bDEtNS45YzAuMS0wLjYgMTEuMS02NCAyNC4zLTEyOCAyNS4xLTEyMS43IDM1LjMtMTM2IDQwLTEzOS41IDMuMS00LjkgMTcuNS0yNS41IDM3LjEtMjUuNWgwLjVjMTQuMSAwLjMgMjcgMTEgMzguMyAzMS45QzcyMC43IDY1Mi41IDczMyA3MDQuNiA3NDMgNzgxYzcuNCA1Ni42IDEwLjcgMTA2LjEgMTAuNyAxMDYuNmwwLjQgNS4zeiBtLTE3Ny4xLTEwaDE2Ni40Yy0yLjQtMzEuOC0xNS45LTE5Ni45LTQ1LjktMjUyLjMtOS41LTE3LjUtMTkuNS0yNi41LTI5LjctMjYuN2gtMC4zYy0xMy40IDAtMjUuNiAxNS42LTI5LjEgMjEuNmwtMC42IDEtMSAwLjZjLTAuOSAwLjctNS44IDYtMTYuMiA0NC43LTYgMjIuNS0xMi45IDUyLjctMjAuNiA5MC0xMC44IDUyLjQtMjAgMTA0LjEtMjMgMTIxLjF6TTY3Ni4yIDU4OS44bC0yNC0xMi41IDI4LjYtNTUuMSAyNCAxMi41LTI4LjYgNTUuMXogbS0xMC41LTE2LjdsNi4yIDMuMiAxOS40LTM3LjMtNi4yLTMuMi0xOS40IDM3LjN6Ii8+PHBhdGggZmlsbD0iI0Q0RjJGRiIgZD0iTTY5NC43IDYxNy44aC01My45Yy01LjggMC0xMC41LTQuNy0xMC41LTEwLjV2LTI2LjFjMC01LjggNC43LTEwLjUgMTAuNS0xMC41aDUzLjljNS44IDAgMTAuNSA0LjcgMTAuNSAxMC41djI2LjFjMCA1LjgtNC43IDEwLjUtMTAuNSAxMC41eiIvPjxwYXRoIGZpbGw9IiMzMTU0NzIiIGQ9Ik02OTQuNyA2MjIuOGgtNTMuOWMtOC41IDAtMTUuNS03LTE1LjUtMTUuNXYtMjYuMWMwLTguNSA3LTE1LjUgMTUuNS0xNS41aDUzLjljOC41IDAgMTUuNSA3IDE1LjUgMTUuNXYyNi4xYzAgOC42LTcgMTUuNS0xNS41IDE1LjV6IG0tNTMuOS00N2MtMyAwLTUuNSAyLjUtNS41IDUuNXYyNi4xYzAgMyAyLjUgNS41IDUuNSA1LjVoNTMuOWMzIDAgNS41LTIuNSA1LjUtNS41di0yNi4xYzAtMy0yLjUtNS41LTUuNS01LjVoLTUzLjl6Ii8+PHBhdGggZmlsbD0iIzMxNTQ3MiIgZD0iTTYzMC41IDU4MC45aDcyLjN2MTBoLTcyLjN6Ii8+PHBhdGggZmlsbD0iIzMxNTQ3MiIgZD0iTTYzMC41IDU5MC4zaDcyLjN2MTBoLTcyLjN6Ii8+PHBhdGggZmlsbD0iIzMxNTQ3MiIgZD0iTTYzMC41IDU5OS42aDc0LjZ2MTBoLTc0LjZ6TTYxNi4yNDggNjYyLjgyMmw5OS4xMi00LjAxIDAuNDA0IDkuOTkyLTk5LjEyIDQuMDF6TTU5Ny4wMSA3NDQuNzMxbDEzNC41MDgtMTAuMjUgMC43NiA5Ljk3Mi0xMzQuNTA5IDEwLjI1ek01ODMuNjMgODEyLjE0NmwxNTYuNDY1LTguNTEgMC41NDMgOS45ODYtMTU2LjQ2NSA4LjUwOXoiLz48cGF0aCBmaWxsPSIjRkZGRkZGIiBkPSJNNjU4LjkgNjE3LjhsLTQ4LjggMjcwLjkiLz48cGF0aCBmaWxsPSIjMzE1NDcyIiBkPSJNNjA1LjE5OCA4ODcuNzQ3bDQ4LjczOC0yNzAuODUxIDkuODQyIDEuNzctNDguNzM4IDI3MC44NTJ6Ii8+PHBhdGggZmlsbD0iI0ZGRkZGRiIgZD0iTTY4Mi45IDYxNy44bC0yMi4xIDI3MS4zIi8+PHBhdGggZmlsbD0iIzMxNTQ3MiIgZD0iTTY1NS44NTQgODg4LjY3bDIyLjE3LTI3MS4zMDIgOS45NjcgMC44MTQtMjIuMTcgMjcxLjMwMnoiLz48cGF0aCBmaWxsPSIjRkZGRkZGIiBkPSJNNjk3LjUgNjIxLjFsMTQuMiAyNjcuNiIvPjxwYXRoIGZpbGw9IiMzMTU0NzIiIGQ9Ik02OTIuNDk4IDYyMS4zNjNsOS45ODYtMC41MyAxNC4yMzMgMjY3LjYyNC05Ljk4NiAwLjUzMXoiLz48cGF0aCBmaWxsPSIjRDRGMkZGIiBkPSJNNDU2LjcgODMzLjJIMzI5LjJjLTEwLjEgMC0xOC40LTcuOC0xOS4yLTE3LjhsLTM0LjgtNjUwLjdoMjM2LjFsLTM1LjQgNjUwLjdjLTAuOCAxMC05LjEgMTcuOC0xOS4yIDE3Ljh6Ii8+PHBhdGggb3BhY2l0eT0iLjMiIGZpbGw9IiM1NEI3RkUiIGQ9Ik0zMzkuMSA4MzMuMmgtOS44Yy0xMC4xIDAtMTguNC03LjgtMTkuMi0xNy44bC0zNC44LTY1MC43aDUyLjJsMzAuNyA2NTAuN2MtMC43IDEwLTkuMSAxNy44LTE5LjEgMTcuOHoiLz48cGF0aCBmaWxsPSIjNTRCN0ZFIiBkPSJNMzA4LjIgNjkyLjdzMzYuNC0xOC4yIDg5LjEgMGM5Mi42IDMxLjkgMTIyLjgtMC4yIDEyMi44IDBsLTE5LjkgMTIxSDMyNy41bC0xOS4zLTEyMXoiLz48cGF0aCBvcGFjaXR5PSIuMyIgZmlsbD0iIzU0QjdGRSIgZD0iTTQ2OC43IDg5My45SDM1OGMtMTcuMSAwLTMxLTEzLjktMzEtMzF2LTQ4LjdoMTcyLjd2NDguN2MwIDE3LjEtMTMuOSAzMS0zMSAzMXoiLz48cGF0aCBmaWxsPSIjMzE1NDcyIiBkPSJNNDkwLjYgODQzLjJIMzM1LjVjLTE0LjUgMC0yNi42LTExLjktMjcuNy0yNy4xdi0wLjJsLTMyLjYtNjYxLjJoMjc2LjJMNTQzIDMyMy44Yy0wLjMgNS41LTUgOS44LTEwLjUgOS41LTUuNS0wLjMtOS44LTUtOS41LTEwLjVsNy40LTE0OC4xSDI5Ni4zbDMxLjUgNjQwLjFjMC40IDQuNyAzLjcgOC40IDcuNyA4LjRoMTU1LjFjNCAwIDcuMy0zLjcgNy43LTguNGwxOS4zLTM4My42YzAuMy01LjUgNS05LjggMTAuNS05LjUgNS41IDAuMyA5LjggNSA5LjUgMTAuNUw1MTguMyA4MTZjLTEuMSAxNS4zLTEzLjIgMjcuMi0yNy43IDI3LjJ6Ii8+PHBhdGggZmlsbD0iIzMxNTQ3MiIgZD0iTTUzMCAzOTMuOWgtMC41Yy01LjUtMC4zLTkuOC01LTkuNS0xMC41bDEuMi0yMy4yYzAuMy01LjUgNS05LjggMTAuNS05LjUgNS41IDAuMyA5LjggNSA5LjUgMTAuNWwtMS4yIDIzLjJjLTAuMyA1LjMtNC43IDkuNS0xMCA5LjV6Ii8+PHBhdGggZmlsbD0iIzMxNTQ3MiIgZD0iTTU1MS43IDEzMC4xSDI3NS42djM0LjJoMjc2LjF2LTM0LjJ6Ii8+PHBhdGggZmlsbD0iIzMxNTQ3MiIgZD0iTTQ3OS43IDgzNC4ydjI4LjdjMCA2LjEtNC45IDExLTExIDExSDM1OGMtNi4xIDAtMTEtNC45LTExLTExdi0yOC43aDEzMi43bTIwLTIwSDMyN3Y0OC43YzAgMTcuMSAxMy45IDMxIDMxIDMxaDExMC42YzE3LjEgMCAzMS0xMy45IDMxLTMxdi00OC43aDAuMXoiLz48cGF0aCBmaWxsPSIjNTRCN0ZFIiBkPSJNNDA1LjIgMzQyLjZsMTUuMy00OC41IDE1LjQgNDguNSA0OC41IDE1LjQtNDguNSAxNS40LTE1LjQgNDguNS0xNS4zLTQ4LjUtNDguNi0xNS40eiIvPjxwYXRoIG9wYWNpdHk9Ii42IiBmaWxsPSIjNTRCN0ZFIiBkPSJNNjgyLjIgNDY1LjRsNi41LTIwLjQgNi40IDIwLjQgMjAuNCA2LjQtMjAuNCA2LjUtNi40IDIwLjQtNi41LTIwLjQtMjAuNC02LjV6Ii8+PHBhdGggb3BhY2l0eT0iLjMiIGZpbGw9IiM1NEI3RkUiIGQ9Ik02MjQuNSA0MTYuMmwxMC40LTUuNC01LjQgMTAuNCA1LjQgMTAuNS0xMC40LTUuNC0xMC41IDUuNCA1LjQtMTAuNS01LjQtMTAuNHoiLz48L3N2Zz4=;" vertex="1" parent="1">
          <mxGeometry x="248.72000000000003" y="761.24" width="47.52" height="47.52" as="geometry" />
        </mxCell>
        <mxCell id="i7Xs4weXve3k-kehigxS-29" value="" style="shape=image;verticalLabelPosition=bottom;labelBackgroundColor=default;verticalAlign=top;aspect=fixed;imageAspect=0;editableCssRules=.*;image=data:image/svg+xml,PHN2ZyB4bWxuczp4bGluaz0iaHR0cDovL3d3dy53My5vcmcvMTk5OS94bGluayIgeG1sbnM9Imh0dHA6Ly93d3cudzMub3JnLzIwMDAvc3ZnIiBoZWlnaHQ9IjE2MC44Mzk4NTU2NzA5Mjg5NiIgd2lkdGg9IjEyNy44OTA2MjI2MTU4MTQyMSIgdmVyc2lvbj0iMS4xIiB2aWV3Qm94PSIxODQuNTk5OTkwODQ0NzI2NTYgMTAwLjE5OTk4OTMxODg0NzY2IDY1NC43OTk5ODc3OTI5Njg4IDgyMy41MDAwNjEwMzUxNTYyIiBjbGFzcz0iaWNvbiI+PHBhdGggZmlsbD0iI0ZGQzREQSIgZD0iTTc5Ny41IDgzOC41YzAgMS0wLjMgMS45LTAuNyAyLjctNi41IDExLjctOC4xIDI1LjYtNC40IDM4LjZsNC44IDE2LjljMC4yIDAuNiAwLjMgMS4zIDAuMiAxLjktMS4yIDE0LTEzIDI1LjEtMjcuNCAyNS4xLTE0LjQgMC0yNi4yLTExLjEtMjcuNC0yNS4xLTAuMS0wLjYgMC0xLjMgMC4yLTEuOWw1LjMtMTkuMmMzLjQtMTIuMSAxLjUtMjUtNC44LTM1LjYtMC41LTAuOS0wLjgtMS45LTAuOC0yLjlWNTA5LjNjMC0zIDIuNS01LjUgNS41LTUuNWg0NGMzIDAgNS41IDIuNSA1LjUgNS41djMyOS4yek01OTYgODc2LjVjMCAyNS43LTIwLjkgNDYuNy00Ni43IDQ2LjdoLTI1M2MtMjUuNyAwLTQ2LjctMjAuOS00Ni43LTQ2LjdWNDE5LjJjMC00OC44IDM5LjctODguNiA4OC42LTg4LjZoMTY5LjJjNDguOCAwIDg4LjYgMzkuNyA4OC42IDg4LjZ2NDU3LjN6Ii8+PHBhdGggZmlsbD0iI0Y4MTk2RCIgZD0iTTQ5MC4yIDI3My4zYzIuMy00LjggMy42LTEwLjMgMy42LTE2LjFWMTM1YzAtMTkuMi0xMy45LTM0LjgtMzEuMS0zNC44SDI5Ny44Yy0xNy4xIDAtMzEuMSAxNS42LTMxLjEgMzQuOHYxMjIuMmMwIDUuOCAxLjMgMTEuMyAzLjYgMTYuMS00OS4xIDExLjUtODUuNyA1NS42LTg1LjcgMTA4LjF2NDU3LjNjMCAzOC4xIDMxIDY5LjEgNjkuMSA2OS4xaDI1My4xYzM4LjEgMCA2OS4xLTMxIDY5LjEtNjkuMVYzODEuNWMwLTUyLjUtMzYuNi05Ni43LTg1LjctMTA4LjJ6IG0tMjAwLjktMzguNGgxODJ2MjIuM2MwIDYuNi00IDEyLjMtOC42IDEyLjNIMjk3LjhjLTQuNiAwLTguNi01LjgtOC42LTEyLjN2LTIyLjN6IG04LjUtMTEyLjJoMTY0LjljNC42IDAgOC42IDUuOCA4LjYgMTIuM3Y3Ny40aC0xODJWMTM1YzAtNi42IDQtMTIuMyA4LjUtMTIuM3ogbTI1NS43IDcxNi4xYzAgMjUuNy0yMC45IDQ2LjctNDYuNyA0Ni43SDI1My43Yy0yNS43IDAtNDYuNy0yMC45LTQ2LjctNDYuN1YzODEuNWMwLTQ4LjggMzkuNy04OC42IDg4LjYtODguNmgxNjkuMmM0OC44IDAgODguNiAzOS43IDg4LjYgODguNnY0NTcuM3oiLz48cGF0aCBmaWxsPSIjRjgxOTZEIiBkPSJNODA4LjUgMjY5LjNoLTI1Ljd2LTExNGMwLTMwLjQtMjQuNy01NS4xLTU1LjEtNTUuMS0zMC40IDAtNTUuMSAyNC43LTU1LjEgNTUuMXYxMTRoLTI3LjljLTE3IDAtMzAuOSAxNS41LTMwLjkgMzQuNnYxMjYuOGMwIDE5LjEgMTMuOCAzNC42IDMwLjkgMzQuNmgzNi41djM0MC40YzAgMi41IDAuOCA0LjkgMi40IDYuOSA0LjUgNS44IDYuMSAxMy41IDQuMSAyMC42bC02IDIxLjdjLTAuMyAxLTAuNCAyLTAuNCAzIDAgMjcuNSAyMi40IDQ5LjggNDkuOCA0OS44IDI3LjUgMCA0OS44LTIyLjQgNDkuOC00OS44IDAtMS0wLjEtMi4xLTAuNC0zLjFsLTUuNi0xOS41Yy0yLjQtOC4zLTAuOS0xNy4xIDQtMjQuMiAxLjMtMS45IDItNC4xIDItNi4zVjQ2NS4yaDI3LjZjMTcgMCAzMC45LTE1LjUgMzAuOS0zNC42VjMwMy45YzAtMTkuMS0xMy44LTM0LjYtMzAuOS0zNC42ek02OTUgMTU1LjNjMC0xOC4xIDE0LjctMzIuNyAzMi43LTMyLjcgMTguMSAwIDMyLjcgMTQuNyAzMi43IDMyLjd2MTE0SDY5NXYtMTE0eiBtNjMuNyA2NDYuMWMtNy4xIDEyLTkgMjYuNC01LjEgMzkuOWw1LjEgMTcuOWMtMC43IDE0LjUtMTIuOCAyNi4xLTI3LjUgMjYuMXMtMjYuNy0xMS42LTI3LjUtMjYuMWw1LjYtMjAuMmMzLjUtMTIuNiAxLjQtMjYuMS01LjYtMzdWNDY1LjJoNTV2MzM2LjJ6IG01OC40LTM3MC44YzAgNi41LTQgMTIuMi04LjUgMTIuMmgtMzUuM2MtMS4xLTAuMy0yLjItMC41LTMuNC0wLjVoLTc3LjNjLTEuMiAwLTIuMyAwLjItMy40IDAuNWgtNDQuM2MtNC41IDAtOC41LTUuNy04LjUtMTIuMlYzMDMuOWMwLTYuNSA0LTEyLjIgOC41LTEyLjJoMTYzLjdjNC41IDAgOC41IDUuNyA4LjUgMTIuMnYxMjYuN3pNNTA2LjIgMzc5LjR2MTA5YzAgNS41LTQuNSAxMC0xMCAxMHMtMTAtNC41LTEwLTEwdi0xMDljMC01LjUgNC41LTEwIDEwLTEwczEwIDQuNSAxMCAxMHpNNTA2LjIgMzQ5LjR2My4zYzAgNS41LTQuNSAxMC0xMCAxMHMtMTAtNC41LTEwLTEwdi0zLjNjMC01LjUgNC41LTEwIDEwLTEwczEwIDQuNSAxMCAxMHoiLz48L3N2Zz4=;" vertex="1" parent="1">
          <mxGeometry x="326.94" y="764.96" width="31.8" height="40" as="geometry" />
        </mxCell>
        <mxCell id="i7Xs4weXve3k-kehigxS-30" value="&lt;span style=&quot;font-family: &amp;quot;Times New Roman&amp;quot;; color: black; font-weight: bold;&quot;&gt;精华&lt;/span&gt;" style="text;whiteSpace=wrap;html=1;fontSize=9;align=center;" vertex="1" parent="1">
          <mxGeometry x="304.72999999999996" y="812.48" width="76.22" height="18.76" as="geometry" />
        </mxCell>
        <mxCell id="i7Xs4weXve3k-kehigxS-31" value="" style="shape=image;verticalLabelPosition=bottom;labelBackgroundColor=default;verticalAlign=top;aspect=fixed;imageAspect=0;editableCssRules=.*;image=data:image/svg+xml,PHN2ZyB4bWxuczp4bGluaz0iaHR0cDovL3d3dy53My5vcmcvMTk5OS94bGluayIgeG1sbnM9Imh0dHA6Ly93d3cudzMub3JnLzIwMDAvc3ZnIiBoZWlnaHQ9IjE1NS43ODEyNDUyMzE2Mjg0MiIgd2lkdGg9IjEzOC4wMDc4MTk2NTI1NTczNyIgdmVyc2lvbj0iMS4xIiB2aWV3Qm94PSIxNjEuNzAwMDEyMjA3MDMxMjUgOTkgNzA2LjYwMDAzNjYyMTA5MzggNzk3LjU5OTk3NTU4NTkzNzUiIGNsYXNzPSJpY29uIj48cGF0aCBmaWxsPSIjRkZGRkZGIiBkPSJNODIwLjggODgxLjNIMjA5LjNjLTE3LjggMC0zMi4yLTE0LjQtMzIuMi0zMi4yVjIzNy42YzAtMTcuOCAxNC40LTMyLjIgMzIuMi0zMi4yaDYxMS40YzE3LjggMCAzMi4yIDE0LjQgMzIuMiAzMi4yVjg0OWMwLjEgMTcuOC0xNC40IDMyLjMtMzIuMSAzMi4zeiIvPjxwYXRoIGZpbGw9IiM0MDA2RkYiIGQ9Ik04MjAuOCA4OTYuNkgyMDkuM2MtMjYuMiAwLTQ3LjYtMjEuMy00Ny42LTQ3LjZWMjM3LjZjMC0yNi4yIDIxLjMtNDcuNiA0Ny42LTQ3LjZoNjExLjRjMjYuMiAwIDQ3LjYgMjEuMyA0Ny42IDQ3LjZWODQ5YzAgMjYuMy0yMS4zIDQ3LjYtNDcuNSA0Ny42ek0yMDkuMyAyMjAuOGMtOS4zIDAtMTYuOSA3LjYtMTYuOSAxNi44Vjg0OWMwIDkuMyA3LjYgMTYuOCAxNi45IDE2LjhoNjExLjRjOS4zIDAgMTYuOC03LjYgMTYuOC0xNi44VjIzNy42YzAtOS4zLTcuNi0xNi44LTE2LjgtMTYuOEgyMDkuM3oiLz48cGF0aCBmaWxsPSIjRkYyMDZEIiBkPSJNNDM0LjQgNTAyLjRIMzIzLjhjLTIwLjQgMC0zNi45LTE2LjUtMzYuOS0zNi45VjM1NC45YzAtMjAuNCAxNi41LTM2LjkgMzYuOS0zNi45aDExMC42YzIwLjQgMCAzNi45IDE2LjUgMzYuOSAzNi45djExMC42Yy0wLjEgMjAuNC0xNi42IDM2LjktMzYuOSAzNi45eiIvPjxwYXRoIGZpbGw9IiM0MDA2RkYiIGQ9Ik00MzQuMyA1MTcuN0gzMjMuOGMtMjguOCAwLTUyLjItMjMuNC01Mi4yLTUyLjJWMzU0LjljMC0yOC44IDIzLjQtNTIuMiA1Mi4yLTUyLjJoMTEwLjZjMjguOCAwIDUyLjIgMjMuNCA1Mi4yIDUyLjJ2MTEwLjZjMCAyOC44LTIzLjUgNTIuMi01Mi4zIDUyLjJ6TTMyMy44IDMzMy40Yy0xMS45IDAtMjEuNSA5LjYtMjEuNSAyMS41djExMC42YzAgMTEuOSA5LjYgMjEuNSAyMS41IDIxLjVoMTEwLjZjMTEuOSAwIDIxLjUtOS42IDIxLjUtMjEuNVYzNTQuOWMwLTExLjktOS42LTIxLjUtMjEuNS0yMS41SDMyMy44eiIvPjxwYXRoIGZpbGw9IiNFOEUxRkYiIGQ9Ik03MDYuMyA1MDIuNEg1OTUuN2MtMjAuNCAwLTM2LjktMTYuNS0zNi45LTM2LjlWMzU0LjljMC0yMC40IDE2LjUtMzYuOSAzNi45LTM2LjloMTEwLjZjMjAuNCAwIDM2LjkgMTYuNSAzNi45IDM2Ljl2MTEwLjZjMCAyMC40LTE2LjUgMzYuOS0zNi45IDM2Ljl6Ii8+PHBhdGggZmlsbD0iIzQwMDZGRiIgZD0iTTcwNi4zIDUxNy43SDU5NS43Yy0yOC44IDAtNTIuMi0yMy40LTUyLjItNTIuMlYzNTQuOWMwLTI4LjggMjMuNC01Mi4yIDUyLjItNTIuMmgxMTAuNmMyOC44IDAgNTIuMiAyMy40IDUyLjIgNTIuMnYxMTAuNmMwIDI4LjgtMjMuNCA1Mi4yLTUyLjIgNTIuMnpNNTk1LjcgMzMzLjRjLTExLjkgMC0yMS41IDkuNi0yMS41IDIxLjV2MTEwLjZjMCAxMS45IDkuNiAyMS41IDIxLjUgMjEuNWgxMTAuNmMxMS45IDAgMjEuNS05LjYgMjEuNS0yMS41VjM1NC45YzAtMTEuOS05LjctMjEuNS0yMS41LTIxLjVINTk1Ljd6Ii8+PHBhdGggZmlsbD0iI0U4RTFGRiIgZD0iTTQzNC40IDc2OC42SDMyMy44Yy0yMC40IDAtMzYuOS0xNi41LTM2LjktMzYuOVY2MjEuMmMwLTIwLjQgMTYuNS0zNi45IDM2LjktMzYuOWgxMTAuNmMyMC40IDAgMzYuOSAxNi41IDM2LjkgMzYuOXYxMTAuNmMtMC4xIDIwLjMtMTYuNiAzNi44LTM2LjkgMzYuOHoiLz48cGF0aCBmaWxsPSIjNDAwNkZGIiBkPSJNNDM0LjMgNzg0SDMyMy44Yy0yOC44IDAtNTIuMi0yMy40LTUyLjItNTIuMlY2MjEuMmMwLTI4LjggMjMuNC01Mi4yIDUyLjItNTIuMmgxMTAuNmMyOC44IDAgNTIuMiAyMy40IDUyLjIgNTIuMnYxMTAuNmMwIDI4LjctMjMuNSA1Mi4yLTUyLjMgNTIuMnpNMzIzLjggNTk5LjdjLTExLjkgMC0yMS41IDkuNi0yMS41IDIxLjV2MTEwLjZjMCAxMS45IDkuNiAyMS41IDIxLjUgMjEuNWgxMTAuNmMxMS45IDAgMjEuNS05LjYgMjEuNS0yMS41VjYyMS4yYzAtMTEuOS05LjYtMjEuNS0yMS41LTIxLjVIMzIzLjh6Ii8+PHBhdGggZmlsbD0iI0U4RTFGRiIgZD0iTTcwNi4zIDc2OC42SDU5NS43Yy0yMC40IDAtMzYuOS0xNi41LTM2LjktMzYuOVY2MjEuMmMwLTIwLjQgMTYuNS0zNi45IDM2LjktMzYuOWgxMTAuNmMyMC40IDAgMzYuOSAxNi41IDM2LjkgMzYuOXYxMTAuNmMwIDIwLjMtMTYuNSAzNi44LTM2LjkgMzYuOHoiLz48cGF0aCBmaWxsPSIjNDAwNkZGIiBkPSJNNzA2LjMgNzg0SDU5NS43Yy0yOC44IDAtNTIuMi0yMy40LTUyLjItNTIuMlY2MjEuMmMwLTI4LjggMjMuNC01Mi4yIDUyLjItNTIuMmgxMTAuNmMyOC44IDAgNTIuMiAyMy40IDUyLjIgNTIuMnYxMTAuNmMwIDI4LjctMjMuNCA1Mi4yLTUyLjIgNTIuMnpNNTk1LjcgNTk5LjdjLTExLjkgMC0yMS41IDkuNi0yMS41IDIxLjV2MTEwLjZjMCAxMS45IDkuNiAyMS41IDIxLjUgMjEuNWgxMTAuNmMxMS45IDAgMjEuNS05LjYgMjEuNS0yMS41VjYyMS4yYzAtMTEuOS05LjctMjEuNS0yMS41LTIxLjVINTk1Ljd6Ii8+PHBhdGggZmlsbD0iIzQwMDZGRiIgZD0iTTcxMy42IDIyMC44SDMxNi41Yy0zMS4xIDAtNTYuMy0yNS4zLTU2LjMtNTYuM3YtOS4yYzAtMzEuMSAyNS4zLTU2LjMgNTYuMy01Ni4zaDM5Ny4xYzMxIDAgNTYuMyAyNS4zIDU2LjMgNTYuM3Y5LjJjMCAzMS0yNS4zIDU2LjMtNTYuMyA1Ni4zeiBtLTM5Ny4xLTkxLjFjLTE0LjEgMC0yNS42IDExLjUtMjUuNiAyNS42djkuMmMwIDE0LjEgMTEuNSAyNS42IDI1LjYgMjUuNmgzOTcuMWMxNC4xIDAgMjUuNi0xMS41IDI1LjYtMjUuNnYtOS4yYzAtMTQuMS0xMS41LTI1LjYtMjUuNi0yNS42SDMxNi41eiIvPjwvc3ZnPg==;" vertex="1" parent="1">
          <mxGeometry x="186.45" y="890" width="34.29" height="38.76" as="geometry" />
        </mxCell>
        <mxCell id="i7Xs4weXve3k-kehigxS-32" value="" style="shape=image;verticalLabelPosition=bottom;labelBackgroundColor=default;verticalAlign=top;aspect=fixed;imageAspect=0;editableCssRules=.*;image=data:image/svg+xml,PHN2ZyB4bWxuczp4bGluaz0iaHR0cDovL3d3dy53My5vcmcvMTk5OS94bGluayIgeG1sbnM9Imh0dHA6Ly93d3cudzMub3JnLzIwMDAvc3ZnIiBoZWlnaHQ9IjIwMCIgd2lkdGg9IjIwMCIgdmVyc2lvbj0iMS4xIiB2aWV3Qm94PSIwIDAgMTAyNCAxMDI0IiBjbGFzcz0iaWNvbiI+PHBhdGggZmlsbD0iI0ZGRkZGRiIgZD0iTTAgMGgxMDI0djEwMjRIMHoiLz48cGF0aCBvcGFjaXR5PSIuMyIgZmlsbD0iI0ZGOTdBOSIgZD0iTTQxNy44IDg5OS4xSDIwOS4xYy0xMy4xIDAtMjMuNi0xMC42LTIzLjYtMjMuNlY1MjYuN2MwLTEzLjEgMTAuNi0yMy42IDIzLjYtMjMuNmgyMDguN2MxMy4xIDAgMjMuNiAxMC42IDIzLjYgMjMuNnYzNDguN2MwIDEzLjEtMTAuNiAyMy43LTIzLjYgMjMuN3oiLz48cGF0aCBvcGFjaXR5PSIuMyIgZmlsbD0iI0ZGOTdBOSIgZD0iTTIxOC45IDUwMy4xVjM4NC44YzAtMTIuNiAxMC4yLTIyLjggMjIuOC0yMi44aDE0My40YzEyLjYgMCAyMi44IDEwLjIgMjIuOCAyMi44VjUwMyIvPjxwYXRoIG9wYWNpdHk9Ii4zIiBmaWxsPSIjRkY5N0E5IiBkPSJNMjE4LjkgMzYyLjZoMzR2MTQwaC0zNHoiLz48cGF0aCBvcGFjaXR5PSIuMyIgZmlsbD0iI0ZGOTdBOSIgZD0iTTE5MS45IDUxMC42aDM0djM4OWgtMzR6Ii8+PHBhdGggZmlsbD0iI0Y5NUQ3QiIgZD0iTTQyMi40IDM2Mi42VjE0MC43YzAtMTEuNS0xMS43LTE5LjQtMjIuNC0xNS4xbC0xNTAuMyA3MmMtOC4xIDMuMy0xMy40IDExLjEtMTMuNCAxOS44djEzOC4xYzAuNiAwLjEgMTg2LjEgNy4xIDE4Ni4xIDcuMXoiLz48cGF0aCBmaWxsPSIjMzE1NDcyIiBkPSJNNDMyLjQgMzczbC0xMC40LTAuNGMtMS44LTAuMS0xNzkuOS02LjgtMTg1LjgtN2gtOS44VjIxNy41YzAtMTIuNyA3LjYtMjQuMSAxOS4zLTI5bDE1MC4zLTcyIDAuMy0wLjFjOC4xLTMuMyAxNy4zLTIuMyAyNC41IDIuNSA3LjMgNC45IDExLjYgMTMgMTEuNiAyMS44VjM3M3ogbS0xODYtMjcuMWMxNS45IDAuNiA1Ny40IDIuMiAxNjYgNi4zVjE0MC43YzAtMy0xLjktNC42LTIuOC01LjItMC44LTAuNS0yLjktMS43LTUuNi0wLjdsLTE1MC4yIDcyLTAuMyAwLjFjLTQuMyAxLjgtNy4xIDUuOS03LjEgMTAuNnYxMjguNHoiLz48cGF0aCBmaWxsPSIjMzE1NDcyIiBkPSJNNDQ3LjkgNTAzLjFoLTIwVjM4NC44YzAtNy01LjctMTIuOC0xMi44LTEyLjhIMjQxLjdjLTcgMC0xMi44IDUuNy0xMi44IDEyLjhWNTAzaC0yMFYzODQuOGMwLTE4LjEgMTQuNy0zMi44IDMyLjgtMzIuOGgxNzMuNGMxOC4xIDAgMzIuOCAxNC43IDMyLjggMzIuOHYxMTguM3pNNDcxLjQgODIxLjZjLTUuNSAwLTEwLTQuNS0xMC0xMHYtMThjMC01LjUgNC41LTEwIDEwLTEwczEwIDQuNSAxMCAxMHYxOGMwIDUuNi00LjUgMTAtMTAgMTB6Ii8+PHBhdGggZmlsbD0iIzMxNTQ3MiIgZD0iTTQ0Ny44IDkwOS4xSDIwOS4xYy0xOC41IDAtMzMuNi0xNS4xLTMzLjYtMzMuNlY1MjYuN2MwLTE4LjUgMTUuMS0zMy42IDMzLjYtMzMuNmgyMzguN2MxOC41IDAgMzMuNiAxNS4xIDMzLjYgMzMuNnYyMjUuOWMwIDUuNS00LjUgMTAtMTAgMTBzLTEwLTQuNS0xMC0xMFY1MjYuN2MwLTcuNS02LjEtMTMuNi0xMy42LTEzLjZIMjA5LjFjLTcuNSAwLTEzLjYgNi4xLTEzLjYgMTMuNnYzNDguN2MwIDcuNSA2LjEgMTMuNiAxMy42IDEzLjZoMjM4LjdjNy41IDAgMTMuNi02LjEgMTMuNi0xMy42di0yNC45YzAtNS41IDQuNS0xMCAxMC0xMHMxMCA0LjUgMTAgMTB2MjQuOWMwIDE4LjYtMTUuMSAzMy43LTMzLjYgMzMuN3oiLz48cGF0aCBvcGFjaXR5PSIuMyIgZmlsbD0iI0ZGOTdBOSIgZD0iTTU0MC42IDg3NS45YzAgMTMuMSAxMC42IDIzLjYgMjMuNiAyMy42aDIxMC43YzEzLjEgMCAyMy42LTEwLjYgMjMuNi0yMy42VjYwOS42YzAtNzkuNS01NC41LTE5NC0xMzQtMTk0LTM2IDAtMTI0IDEwNC41LTEyNCAxODR2Mjc2LjN6Ii8+PHBhdGggb3BhY2l0eT0iLjMiIGZpbGw9IiNGRjk3QTkiIGQ9Ik01NDAuNiA4NzUuOWMwIDEzLjEgMTAuNiAyMy42IDIzLjYgMjMuNmgtMTIuM2MxMy4xIDAgMjMuNi0xMC42IDIzLjYtMjMuNlY2NDAuNmMxMi0xNjggODktMjI1IDg5LTIyNS0zNiAwLTEyNCAxMDQuNS0xMjQgMTg0djI3Ni4zeiIvPjxwYXRoIGZpbGw9IiMzMTU0NzIiIGQ9Ik04MDQuOSA5MDkuNkg1NjQuMmMtMTguNSAwLTMzLjYtMTUuMS0zMy42LTMzLjZ2LTIwLjhjMC01LjUgNC41LTEwIDEwLTEwczEwIDQuNSAxMCAxMFY4NzZjMCA3LjUgNi4xIDEzLjYgMTMuNiAxMy42aDI0MC43YzcuNSAwIDEzLjYtNi4xIDEzLjYtMTMuNlY2NDkuNmMwLTM0LjYtOC40LTkyLjYtMzItMTQyLjUtMzEuOS02Ny4zLTczLTgxLjUtMTAyLTgxLjUtNDUuMiAwLTgwLjQgMjcuNC0xMDQuOSA4MS4zLTIxLjUgNDcuNC0yOS4xIDEwNC44LTI5LjEgMTQyLjd2MTAwLjZjMCA1LjUtNC41IDEwLTEwIDEwcy0xMC00LjUtMTAtMTBWNjQ5LjZjMC00MCA4LjEtMTAwLjcgMzAuOS0xNTAuOSAyNy42LTYwLjkgNzAuMS05MyAxMjMuMS05MyA0OS43IDAgOTEuMyAzMi4xIDEyMCA5Mi45IDI1LjEgNTIuOSAzNCAxMTQuNSAzNCAxNTEuMXYyMjYuNGMwLjEgMTguNC0xNSAzMy41LTMzLjYgMzMuNXoiLz48cGF0aCBmaWxsPSIjMzE1NDcyIiBkPSJNNTQwLjYgODIxLjZjLTUuNSAwLTEwLTQuNS0xMC0xMHYtMThjMC01LjUgNC41LTEwIDEwLTEwczEwIDQuNSAxMCAxMHYxOGMwIDUuNi00LjUgMTAtMTAgMTB6Ii8+PHBhdGggZmlsbD0iI0ZGRkZGRiIgZD0iTTM3OS45IDMxOS42aC0xYy0zLjkgMC03LTMuMS03LTd2LTU1YzAtMy45IDMuMS03IDctN2gxYzMuOSAwIDcgMy4xIDcgN3Y1NWMwIDMuOC0zLjEgNy03IDd6Ii8+PHBhdGggZmlsbD0iI0ZGOTdBOSIgZD0iTTY3Ny44IDI4Ni40bDYuOC0yMS41IDYuOCAyMS41IDIxLjUgNi44LTIxLjUgNi45LTYuOCAyMS41LTYuOC0yMS41LTIxLjYtNi45eiIvPjxwYXRoIG9wYWNpdHk9Ii4zIiBmaWxsPSIjRkY5N0E5IiBkPSJNNjE2LjkgMjM0LjZsMTEtNS43LTUuNyAxMSA1LjcgMTEtMTEtNS43LTExIDUuNyA1LjctMTEtNS43LTExeiIvPjxwYXRoIGZpbGw9IiNGRkZGRkYiIGQ9Ik0zNzQuMyAyMDAuNWw1LjMtMTYuNiA1LjIgMTYuNiAxNi42IDUuMi0xNi42IDUuMy01LjIgMTYuNi01LjMtMTYuNi0xNi42LTUuM3oiLz48L3N2Zz4=;" vertex="1" parent="1">
          <mxGeometry x="254.73" y="884.38" width="50" height="50" as="geometry" />
        </mxCell>
        <mxCell id="i7Xs4weXve3k-kehigxS-33" value="" style="shape=image;verticalLabelPosition=bottom;labelBackgroundColor=default;verticalAlign=top;aspect=fixed;imageAspect=0;editableCssRules=.*;image=data:image/svg+xml,PHN2ZyB4bWxuczp4bGluaz0iaHR0cDovL3d3dy53My5vcmcvMTk5OS94bGluayIgeG1sbnM9Imh0dHA6Ly93d3cudzMub3JnLzIwMDAvc3ZnIiBoZWlnaHQ9IjEzNi44MDMzNzY2NzQ2NTIxIiB3aWR0aD0iMTAwLjEyMjQyNzk0MDM2ODY1IiB2ZXJzaW9uPSIxLjEiIHZpZXdCb3g9IjI1OS42MDc4Nzk2Mzg2NzE5IDE1Ni43NjY3MjM2MzI4MTI1IDUxMi42MjY4MzEwNTQ2ODc1IDcwMC40MzMyODg1NzQyMTg4IiBjbGFzcz0iaWNvbiI+PHBhdGggb3BhY2l0eT0iLjUiIGZpbGw9IiNGRkUxRTEiIGQ9Ik0zMTEuNCA4MTQuOGEyMTAuNyA0Mi40IDAgMSAwIDQyMS40IDAgMjEwLjcgNDIuNCAwIDEgMC00MjEuNCAwWiIvPjxwYXRoIGZpbGw9IiNGRkZGRkYiIGQ9Ik00MTcuNyAyNjQuNmMtNC4zIDAtNy43LTMuNC03LjctNy43di0yOC43YzAtNC4zIDMuNC03LjcgNy43LTcuNyA0LjMgMCA3LjcgMy40IDcuNyA3LjdWMjU3YzAgNC4yLTMuNSA3LjYtNy43IDcuNnoiLz48cGF0aCBmaWxsPSIjRkY4RDhEIiBkPSJNMjgzLjg0OTg3IDQ2Mi4zNjYxODVhMTkxLjYgMjEzIDU5LjQ1NSAxIDAgMzY2Ljg4NDA5OC0yMTYuNDk5NTU5IDE5MS42IDIxMyA1OS40NTUgMSAwLTM2Ni44ODQwOTggMjE2LjQ5OTU1OVoiLz48cGF0aCBmaWxsPSIjRkZENEQ0IiBkPSJNMzAxLjQxMjIxNyA0NjYuOTkzNmExODguMiAyMTAuNyA1OS40NTUgMSAwIDM2Mi45MjI0MzgtMjE0LjE2MTc3MSAxODguMiAyMTAuNyA1OS40NTUgMSAwLTM2Mi45MjI0MzggMjE0LjE2MTc3MVoiLz48cGF0aCBmaWxsPSIjRkY4RDhEIiBkPSJNNzU1LjcgODAwLjhjLTIyLjMgNDYuMy0xMzYuMyA1NS44LTI2OC40IDYuMy0xMzIuMS00OS42LTIyNy40LTEzMy4yLTIxMi43LTE4My4zIDMuMS0xMC42IDIxLjYtNDQuNiAyMS42LTQ0LjZzMTM5LjkgNC42IDI0NC4xIDQzLjdjMTA3LjMgNDAuMyAyMjkuNCAxNDkuNSAyMjkuNCAxNDkuNXMtOS44IDE5LjYtMTQgMjguNHoiLz48cGF0aCBmaWxsPSIjRkZFMUUxIiBkPSJNNDk0Ljc0OTM2IDc3NS40MjMwNDdhMjU1LjYgMTAwLjQgMjEuMjM1IDEgMCA3Mi43Mjg1Ni0xODcuMTY2MjI3IDI1NS42IDEwMC40IDIxLjIzNSAxIDAtNzIuNzI4NTYgMTg3LjE2NjIyN1oiLz48cGF0aCBmaWxsPSIjRkY4RDhEIiBkPSJNNTU0IDYwMC4zYy03OS44LTI5LjktMTUzLjktMzguMy0xOTQuMS0yNS4xLTEyLjkgNS4zLTIxLjUgMTMuMi0yNC42IDIzLjctMTIuMyA0MS45IDY3LjUgMTA5LjUgMTc4LjEgMTUxIDEwMS41IDM4LjEgMTkzLjcgNDAuOSAyMTcuNyA4LjcgMS4xLTEuOSAxLjktNCAyLjYtNi4xQzc0NiA3MTAuNCA2NjUuNiA2NDIuMiA1NTQgNjAwLjN6Ii8+PHBhdGggZmlsbD0iI0ZGQTZBNiIgZD0iTTYyOC4yIDYyNi45Yy0xOC4zLTkuMS0zNy45LTE3LjctNTguNS0yNS40LTg1LjctMzIuMi0xNjUuMy00MS4xLTIwOC42LTI3LTEzLjkgNS43LTIzLjEgMTQuMi0yNi40IDI1LjUtOS42IDMyLjggMzMuMSA4MC4xIDEwMi45IDEyMC43IDE4LjEgOSAzNy41IDE3LjUgNTcuOSAyNS4yIDEwOSA0MC45IDIwOC4xIDQ0IDIzMy44IDkuNCAxLjItMi4xIDIuMS00LjMgMi44LTYuNSA5LjYtMzMuMi0zMy42LTgxLTEwMy45LTEyMS45eiIvPjxwYXRoIGZpbGw9IiNGRkZBRkEiIGQ9Ik0zMjAuMDAzMDYyIDQ1MC45NzQ5MTRhMTY1LjEgMTg2LjYgNjAuNzkgMSAwIDMyNS43NDI3MzgtMTgyLjEyNjA4IDE2NS4xIDE4Ni42IDYwLjc5IDEgMC0zMjUuNzQyNzM4IDE4Mi4xMjYwOFoiLz48cGF0aCBmaWxsPSIjRUY0QjRCIiBkPSJNMzIwLjAwMzA2MiA0NTAuOTc0OTE0YTE2NS4xIDE4Ni42IDYwLjc5IDEgMCAzMjUuNzQyNzM4LTE4Mi4xMjYwOCAxNjUuMSAxODYuNiA2MC43OSAxIDAtMzI1Ljc0MjczOCAxODIuMTI2MDhaIi8+PHBhdGggZmlsbD0iI0ZGRkZGRiIgZD0iTTMyMS4zOTk2MDEgNDUwLjE5NDA5NWExNjMuNyAxODUgNjAuNzkgMSAwIDMyMi45NDk2Ni0xODAuNTY0NDQyIDE2My43IDE4NSA2MC43OSAxIDAtMzIyLjk0OTY2IDE4MC41NjQ0NDJaIi8+PHBhdGggb3BhY2l0eT0iLjIiIGZpbGw9IiNGRkE2QTYiIGQ9Ik02MjcuNSAyNDUuNkwzMDIuOCAzODEuN2MwLjMgOS44IDEuNSAxOS42IDMuNyAyOS40IDMuNiAxNS44IDkuNSAzMC4zIDE3LjQgNDMuNGwzMjEuNi0xODIuOWMtNS4xLTkuNC0xMS4xLTE4LjEtMTgtMjZ6TTM4My4xIDUwOS42bDI3OS43LTE3Ni4xYy0wLjMtNS4zLTAuOS0xMC43LTEuOC0xNkwzNTcgNDkyLjRjOC4xIDYuNiAxNi44IDEyLjQgMjYuMSAxNy4yeiIvPjxwYXRoIGZpbGw9IiNGRkZGRkYiIGQ9Ik02NzMuNCA3NTQuOW0tOSAwYTkgOSAwIDEgMCAxOCAwIDkgOSAwIDEgMC0xOCAwWiIvPjxwYXRoIGZpbGw9IiNGRkZGRkYiIGQ9Ik02ODcgNzQ4LjNjLTIuOS0yLjItNC02LjEtMi42LTkuNCAxLjctMy45IDIuMS04IDEuMy0xMi42LTMuMy0yMC4yLTI4LjktNDMtNDMuOC01NC4yLTMuNC0yLjUtNC4yLTcuMy0xLjgtMTAuOCAyLjUtMy44IDcuOC00LjcgMTEuNC0yIDE0LjIgMTAuNiA0NS41IDM3IDUwIDY0LjQgMS4zIDcuNiAwLjUgMTQuNy0yLjMgMjEuMy0yIDQuOS04IDYuNS0xMi4yIDMuM3oiLz48L3N2Zz4=;" vertex="1" parent="1">
          <mxGeometry x="326.94" y="888.76" width="33.3" height="45.62" as="geometry" />
        </mxCell>
        <mxCell id="i7Xs4weXve3k-kehigxS-34" value="&lt;span style=&quot;font-family: &amp;quot;Times New Roman&amp;quot;; color: black; font-weight: bold;&quot;&gt;粉底&lt;/span&gt;" style="text;whiteSpace=wrap;html=1;fontSize=9;align=center;" vertex="1" parent="1">
          <mxGeometry x="310" y="940" width="58.11" height="18.76" as="geometry" />
        </mxCell>
      </root>
    </mxGraphModel>
  </diagram>
</mxfile>
